<svg width="48" height="48" viewBox="0 0 48 48" fill="none" xmlns="http://www.w3.org/2000/svg">
<path d="M22 28V21L20 22.3125" stroke="white" stroke-width="1.5" stroke-linecap="round" stroke-linejoin="round"/>
<path d="M25 27.5627C25.3134 27.8373 25.7029 28 26.125 28C27.1605 28 28 27.0206 28 25.8125C28 24.6044 27.1605 23.625 26.125 23.625C25.7029 23.625 25.3134 23.7877 25 24.0623L25.375 21H28" stroke="white" stroke-width="1.5" stroke-linecap="round" stroke-linejoin="round"/>
<path d="M32.1839 15.8041C37.0309 20.1977 37.2961 27.579 32.7762 32.2905C28.2563 37.0021 20.663 37.2599 15.8161 32.8663C10.9691 28.4726 10.7039 21.0914 15.2238 16.3798C17.7947 13.6999 21.36 12.4609 24.8486 12.6992M23.1429 10L26.1992 12.8329L23.1429 15.871" stroke="white" stroke-width="2" stroke-linecap="round" stroke-linejoin="round"/>
</svg>
