<svg width="24" height="24" viewBox="0 0 24 24" fill="none" xmlns="http://www.w3.org/2000/svg">
<path d="M14.2857 3.11111C14.2857 2.49746 14.7974 2 15.4286 2H18.8571C19.4883 2 20 2.49746 20 3.11111V20.8889C20 21.5025 19.4883 22 18.8571 22H15.4286C14.7974 22 14.2857 21.5025 14.2857 20.8889V3.11111Z" fill="white"/>
<path d="M4 3.11111C4 2.49746 4.51167 2 5.14286 2H8.57143C9.20261 2 9.71429 2.49746 9.71429 3.11111V20.8889C9.71429 21.5025 9.20261 22 8.57143 22H5.14286C4.51167 22 4 21.5025 4 20.8889V3.11111Z" fill="white"/>
</svg>
